<mxfile host="app.diagrams.net" modified="2023-11-08T15:38:31.569Z" agent="Mozilla/5.0 (Windows NT 10.0; Win64; x64) AppleWebKit/537.36 (KHTML, like Gecko) Chrome/116.0.5845.837 YaBrowser/23.9.4.837 Yowser/2.5 Safari/537.36" etag="MqK1YVMcJTU9v41bmcUd" version="22.0.8" type="github">
  <diagram name="Страница — 1" id="H9pa0QBsa72pSQdfU25b">
    <mxGraphModel dx="642" dy="329" grid="1" gridSize="10" guides="1" tooltips="1" connect="1" arrows="1" fold="1" page="1" pageScale="1" pageWidth="827" pageHeight="1169" math="0" shadow="0">
      <root>
        <mxCell id="0" />
        <mxCell id="1" parent="0" />
        <mxCell id="C2jQ7FYxSvA6jyC8aTb9-1" value="" style="verticalAlign=top;align=left;spacingTop=8;spacingLeft=2;spacingRight=12;shape=cube;size=10;direction=south;fontStyle=4;html=1;whiteSpace=wrap;" vertex="1" parent="1">
          <mxGeometry x="40" y="40" width="240" height="300" as="geometry" />
        </mxCell>
        <mxCell id="C2jQ7FYxSvA6jyC8aTb9-2" value="&quot;executionEnviroment&quot;&lt;br&gt;AuthorizationService" style="verticalAlign=top;align=center;spacingTop=8;spacingLeft=2;spacingRight=12;shape=cube;size=10;direction=south;fontStyle=4;html=1;whiteSpace=wrap;" vertex="1" parent="1">
          <mxGeometry x="80" y="145" width="180" height="60" as="geometry" />
        </mxCell>
        <mxCell id="C2jQ7FYxSvA6jyC8aTb9-3" style="edgeStyle=orthogonalEdgeStyle;rounded=0;orthogonalLoop=1;jettySize=auto;html=1;endArrow=none;endFill=0;" edge="1" parent="1" source="C2jQ7FYxSvA6jyC8aTb9-4" target="C2jQ7FYxSvA6jyC8aTb9-7">
          <mxGeometry relative="1" as="geometry" />
        </mxCell>
        <mxCell id="C2jQ7FYxSvA6jyC8aTb9-4" value="&quot;executionEnviroment&quot;&lt;br&gt;OrderService" style="verticalAlign=top;align=center;spacingTop=8;spacingLeft=2;spacingRight=12;shape=cube;size=10;direction=south;fontStyle=4;html=1;whiteSpace=wrap;" vertex="1" parent="1">
          <mxGeometry x="60" y="255" width="200" height="60" as="geometry" />
        </mxCell>
        <mxCell id="C2jQ7FYxSvA6jyC8aTb9-5" value="&quot;device&quot;&lt;br&gt;AnalyticsService" style="verticalAlign=top;align=center;spacingTop=8;spacingLeft=2;spacingRight=12;shape=cube;size=10;direction=south;fontStyle=4;html=1;whiteSpace=wrap;" vertex="1" parent="1">
          <mxGeometry x="350" y="55" width="180" height="70" as="geometry" />
        </mxCell>
        <mxCell id="C2jQ7FYxSvA6jyC8aTb9-6" value="&quot;executionEnviroment&quot;&lt;br style=&quot;border-color: var(--border-color);&quot;&gt;ExternalSmsProvider" style="verticalAlign=top;align=center;spacingTop=8;spacingLeft=2;spacingRight=12;shape=cube;size=10;direction=south;fontStyle=4;html=1;whiteSpace=wrap;" vertex="1" parent="1">
          <mxGeometry x="350" y="135" width="180" height="70" as="geometry" />
        </mxCell>
        <mxCell id="C2jQ7FYxSvA6jyC8aTb9-7" value="&quot;executionEnviroment&quot;&lt;br style=&quot;border-color: var(--border-color);&quot;&gt;ExternalSalonSchedule" style="verticalAlign=top;align=center;spacingTop=8;spacingLeft=2;spacingRight=12;shape=cube;size=10;direction=south;fontStyle=4;html=1;whiteSpace=wrap;" vertex="1" parent="1">
          <mxGeometry x="350" y="250" width="180" height="70" as="geometry" />
        </mxCell>
        <mxCell id="C2jQ7FYxSvA6jyC8aTb9-8" style="edgeStyle=orthogonalEdgeStyle;rounded=0;orthogonalLoop=1;jettySize=auto;html=1;entryX=0;entryY=0;entryDx=0;entryDy=95;entryPerimeter=0;endArrow=none;endFill=0;exitX=0;exitY=0;exitDx=60;exitDy=95;exitPerimeter=0;" edge="1" parent="1" source="C2jQ7FYxSvA6jyC8aTb9-2" target="C2jQ7FYxSvA6jyC8aTb9-4">
          <mxGeometry relative="1" as="geometry" />
        </mxCell>
        <mxCell id="C2jQ7FYxSvA6jyC8aTb9-9" style="edgeStyle=orthogonalEdgeStyle;rounded=0;orthogonalLoop=1;jettySize=auto;html=1;entryX=0;entryY=0;entryDx=40;entryDy=180;entryPerimeter=0;endArrow=none;endFill=0;" edge="1" parent="1" source="C2jQ7FYxSvA6jyC8aTb9-2" target="C2jQ7FYxSvA6jyC8aTb9-6">
          <mxGeometry relative="1" as="geometry" />
        </mxCell>
        <mxCell id="C2jQ7FYxSvA6jyC8aTb9-10" value="" style="endArrow=none;html=1;rounded=0;entryX=0;entryY=0;entryDx=40;entryDy=180;entryPerimeter=0;" edge="1" parent="1" target="C2jQ7FYxSvA6jyC8aTb9-5">
          <mxGeometry width="50" height="50" relative="1" as="geometry">
            <mxPoint x="280" y="95" as="sourcePoint" />
            <mxPoint x="330" y="45" as="targetPoint" />
          </mxGeometry>
        </mxCell>
        <mxCell id="C2jQ7FYxSvA6jyC8aTb9-11" value="&lt;font style=&quot;font-size: 14px;&quot;&gt;&quot;device&quot;&lt;br&gt;Server&lt;/font&gt;" style="text;html=1;strokeColor=none;fillColor=none;align=center;verticalAlign=middle;whiteSpace=wrap;rounded=0;" vertex="1" parent="1">
          <mxGeometry x="130" y="65" width="60" height="30" as="geometry" />
        </mxCell>
      </root>
    </mxGraphModel>
  </diagram>
</mxfile>
